# xmcd
#
# Track frame offsets:
#  150
#  24775
#  36422
#  48664
#  87627
#  100332
#  117477
#  129440
#  175727
#  203687
#  219100
#  237802
#
# Disc length: 3377 seconds
#
# Revision: 0
# Processed by: cddbd v1.4PL0 Copyright (c) Steve Scherf et al.
# Submitted via: AltoMP3_Maker 3.0
#
DISCID=9e0d2f0c
DTITLE=B.B. King - B.B. King
DYEAR=1900
DGENRE=
TTITLE0=The thrill is gone
TTITLE1=Paying the cost to be the boss
TTITLE2=How blue can you get
TTITLE3=Why I sing the blues
TTITLE4=Everiday I have the blues
TTITLE5=Sweet little angel (live)
TTITLE6=Help the poor
TTITLE7=Lucille
TTITLE8=Sweet sixteen (live)
TTITLE9=I got some help I don't need
TTITLE10=Guess who
TTITLE11=Rock me baby (live)
EXTD=
EXTT0=
EXTT1=
EXTT2=
EXTT3=
EXTT4=
EXTT5=
EXTT6=
EXTT7=
EXTT8=
EXTT9=
EXTT10=
EXTT11=
PLAYORDER=
